
<svg xmlns="http://www.w3.org/2000/svg" version="1.1" xmlns:xlink="http://www.w3.org/1999/xlink" preserveAspectRatio="none" x="0px" y="0px" width="120px" height="120px" viewBox="0 0 120 120">
<defs>
<g id="Layer0_0_FILL">
<path fill="#46A0C3" stroke="none" d="
M 100.1 87.85
L 100.1 33.85 60.95 33.85 60.95 16.45 22.7 16.45 22.7 87.85 100.1 87.85
M 93.5 40.15
L 93.5 79.3 60.95 79.3 60.95 40.15 93.5 40.15
M 44.7 33.55
L 44.7 25 54.35 25 54.35 33.55 44.7 33.55
M 44.7 49
L 44.7 40.15 54.35 40.15 54.35 49 44.7 49
M 38.65 40.15
L 38.65 49 31.25 49 31.25 40.15 38.65 40.15
M 31.25 33.55
L 31.25 25 38.65 25 38.65 33.55 31.25 33.55
M 31.25 79.3
L 31.25 70.7 38.65 70.7 38.65 79.3 31.25 79.3
M 38.65 56.1
L 38.65 64.4 31.25 64.4 31.25 56.1 38.65 56.1
M 44.7 56.1
L 54.35 56.1 54.35 64.4 44.7 64.4 44.7 56.1
M 44.7 70.7
L 54.35 70.7 54.35 79.3 44.7 79.3 44.7 70.7
M 73.25 47.25
L 66.65 47.25 66.65 74.4 73.25 74.4 73.25 47.25
M 88.15 47.25
L 81.6 47.25 81.6 74.4 88.15 74.4 88.15 47.25 Z"/>
</g>
</defs>

<g transform="matrix( 1, 0, 0, 1, 0,0) ">
<use xlink:href="#Layer0_0_FILL"/>
</g>
</svg>
