
<svg xmlns="http://www.w3.org/2000/svg" version="1.1" xmlns:xlink="http://www.w3.org/1999/xlink" preserveAspectRatio="none" x="0px" y="0px" width="100px" height="100px" viewBox="0 0 100 100">
<defs>
<g id="Layer1_0_FILL">
<path fill="#47A0C3" stroke="none" d="
M 261.7 297
L 261.15 297 261.15 297.65 261.7 297 Z"/>
</g>

<g id="Layer0_0_FILL">
<path fill="#000000" stroke="none" d="
M 64.75 12.2
Q 71.45 16 75.35 22.55 79.4 29.35 79.4 37.25 79.4 42.8 77.35 47.95 77.25 47.05 76.75 46.25 76.25 45.5 75.45 45.05 75.65 44.45 75.65 43.9 75.5 41.3 73.45 40.4 72.8 40.1 72 40 71.6 39.95 71.3 40 70.35 37.6 68.05 37.35 67.25 37.25 66.4 37.4 65.75 37.55 65.45 37.75 64.95 37.3 64.25 37.05 63.6 36.8 62.85 36.8 61.9 36.8 61.05 37.25 60.2 37.65 59.65 38.45 58.95 38.1 58.15 38.1 55.55 38.1 54.6 40.2 54.15 41.25 54.2 42.35 53 42.75 52.25 43.75 51.55 44.75 51.55 46.05 51.55 46.85 51.85 47.55 52.1 48.25 52.65 48.8 52.05 49.7 52.05 50.85 52.05 52.3 53 53.4 53.9 54.5 55.3 54.75 55.45 56.2 56.55 57.25 57.7 58.25 59.2 58.25 59.7 58.25 60.2 58.15 60.7 59.15 61.8 59.75 62.75 60.3 63.8 60.3 65.1 60.3 66.2 59.45 67.25 60.3 68.6 60.3 70.05 60.3 71.2 59.3 72.3 58.35 72.5 56.9 73.95 56.7 74.95 55.6 75.95 54.5 75.95 53 75.95 52.35 75.75 51.65 76.3 51.25 76.75 50.65 77.15 50.05 77.3 49.35 78.15 51.45 78.15 53.5 78.15 57.3 75.75 60.25 73.4 63.25 69.75 64.1 66.7 64.8 65.1 67.15 63.9 68.9 63.85 70.85 63.8 71.4 63.4 71.75 62.95 72.1 62.45 72.1
L 60.6 72.1 60.6 71.4
Q 60.6 70.9 60.25 70.5 59.85 70.15 59.35 70.15 58.8 70.15 58.45 70.5 58.05 70.9 58.05 71.4
L 58.05 72.1 56.25 72.1 56.25 71.4
Q 56.25 70.9 55.9 70.5 55.5 70.15 55 70.15 54.45 70.15 54.1 70.5 53.7 70.9 53.7 71.4
L 53.7 72.1 51.95 72.1 51.95 71.4
Q 51.95 70.9 51.55 70.5 51.15 70.15 50.65 70.15 50.1 70.15 49.75 70.5 49.35 70.9 49.35 71.4
L 49.35 72.1 47.6 72.1 47.6 71.4
Q 47.6 70.9 47.2 70.5 46.85 70.15 46.3 70.15 45.75 70.15 45.4 70.5 45 70.9 45 71.4
L 45 72.1 43.25 72.1 43.25 71.4
Q 43.25 70.9 42.85 70.5 42.5 70.15 41.95 70.15 41.45 70.15 41.05 70.5 40.7 70.9 40.7 71.4
L 40.7 72.1 38.85 72.1
Q 38.3 72.1 37.9 71.75 37.5 71.4 37.45 70.85 37.35 68.95 36.15 67.2 34.55 64.85 31.6 64.1 27.8 63.15 25.5 60.2 23.15 57.3 23.15 53.5 23.15 51.35 24 49.35 24.15 50.05 24.55 50.65 24.95 51.25 25.55 51.65 25.35 52.3 25.35 53 25.35 54.5 26.35 55.6 27.35 56.7 28.8 56.9 29 58.35 30.1 59.3 31.25 60.3 32.7 60.3 34.05 60.3 35.1 59.45 36.15 60.3 37.5 60.3 38.55 60.3 39.5 59.75 40.6 59.15 41.1 58.15 41.6 58.25 42.1 58.25 43.6 58.25 44.75 57.25 45.85 56.2 46 54.75 47.4 54.5 48.3 53.4 49.25 52.3 49.25 50.85 49.25 49.7 48.65 48.8 49.2 48.25 49.45 47.55 49.75 46.85 49.75 46.05 49.75 44.75 49.05 43.75 48.3 42.75 47.1 42.35 47.15 41.25 46.7 40.2 45.75 38.1 43.15 38.1 42.35 38.1 41.65 38.45 41.1 37.65 40.25 37.25 39.4 36.8 38.45 36.8 37.7 36.8 37.05 37.05 36.35 37.3 35.85 37.75 35.55 37.55 34.9 37.4 34.05 37.25 33.25 37.35 30.95 37.6 30 40 28.9 39.95 27.85 40.4 25.75 41.3 25.65 43.9 25.6 44.45 25.8 45.05 25.05 45.5 24.55 46.25 24.05 47.05 23.95 47.95 21.9 42.8 21.9 37.25 21.9 33.85 22.7 30.5 22.8 30 22.55 29.55 22.25 29.1 21.75 28.95 21.25 28.85 20.8 29.1 20.3 29.4 20.2 29.9 19.35 33.5 19.35 37.25 19.35 43.25 21.5 48.7 20.6 51 20.6 53.5 20.6 56.65 21.95 59.35 23.25 62.05 25.6 63.95
L 25.6 71.4
Q 25.6 75.55 27.25 79.4 28.8 83.05 31.65 85.9 34.5 88.75 38.2 90.35 42 91.95 46.15 91.95
L 55.1 91.95
Q 58.9 91.95 62.45 90.6 66 89.2 68.85 86.65 69.25 86.3 69.3 85.75 69.3 85.25 68.95 84.85 68.6 84.45 68.05 84.45 67.55 84.4 67.15 84.75 64.5 87.15 61.15 88.35 61.45 87.3 61.2 86.2 60.75 84 58.4 82.9 57.85 82.65 57.1 82.65 56.05 82.65 55.05 83.1 54.9 82 54.35 81.1 54 80.5 53.5 80.05 52.3 79.05 50.65 79.05 49 79.05 47.8 80.05 47.3 80.5 46.9 81.1 46.35 82 46.25 83.1 45.25 82.65 44.2 82.65 43.45 82.65 42.9 82.9 40.4 83.95 40 86.15 39.8 87.3 40.15 88.35 34.85 86.45 31.55 81.9 28.15 77.2 28.15 71.4
L 28.15 65.55
Q 29.4 66.15 30.75 66.5
L 30.75 71.4
Q 30.75 72.9 31.4 74.45 32.6 77.45 35.7 78.65 36.15 78.8 36.6 78.65 37.45 78.5 37.45 77.45
L 37.45 76.1
Q 37.45 75.5 37.85 75.1 38.25 74.65 38.85 74.65
L 40.7 74.65 40.7 76.1
Q 40.7 76.65 41.05 77.05 41.45 77.4 41.95 77.4 42.5 77.4 42.85 77.05 43.25 76.65 43.25 76.1
L 43.25 74.65 45 74.65 45 76.1
Q 45 76.65 45.4 77.05 45.75 77.4 46.3 77.4 46.85 77.4 47.2 77.05 47.6 76.65 47.6 76.1
L 47.6 74.65 49.35 74.65 49.35 76.1
Q 49.35 76.65 49.75 77.05 50.1 77.4 50.65 77.4 51.2 77.4 51.55 77.05 51.95 76.65 51.95 76.1
L 51.95 74.65 53.7 74.65 53.7 76.1
Q 53.7 76.65 54.1 77.05 54.45 77.4 55 77.4 55.5 77.4 55.9 77.05 56.25 76.65 56.25 76.1
L 56.25 74.65 58.05 74.65 58.05 76.1
Q 58.05 76.65 58.45 77.05 58.8 77.4 59.35 77.4 59.85 77.4 60.25 77.05 60.6 76.65 60.6 76.1
L 60.6 74.65 62.45 74.65
Q 63 74.65 63.45 75.1 63.85 75.5 63.85 76.1
L 63.85 77.45
Q 63.85 78.5 64.65 78.65 65.15 78.8 65.6 78.65 68.7 77.45 69.9 74.45 70.55 72.9 70.55 71.4
L 70.55 66.5
Q 71.85 66.2 73.15 65.6
L 73.15 71.4
Q 73.15 74.3 72.25 77.05 71.3 79.75 69.55 82.1 69.25 82.5 69.35 83.05 69.4 83.6 69.85 83.9 70.5 84.35 71 84.15 71.3 84.05 71.6 83.65 73.6 80.95 74.65 77.85 75.7 74.7 75.7 71.4
L 75.7 63.95
Q 76.8 63.1 77.75 61.95 79.15 60.15 79.9 57.95 80.7 55.8 80.7 53.5 80.7 51 79.8 48.7 81.95 43.25 81.95 37.25 81.95 28.25 78.45 21.55 75.45 15.85 69.95 12 65.45 8.85 59.65 7.25 55 5.95 50.65 5.95 45.4 5.95 39.9 7.9 37 8.95 35 10.15 31.55 12.15 28.7 14.95 25.8 17.75 23.8 21.2 23.5 21.65 23.65 22.15 23.75 22.65 24.2 22.95 24.65 23.2 25.2 23.1 25.7 22.95 25.95 22.5 27.95 19.2 30.65 16.6 33.3 14 36.5 12.2 36.85 13.1 37.55 13.85 38.5 14.95 39.75 15.1 38.9 16.45 39.1 18.05 39.3 19.6 40.45 20.75 41.6 21.9 43.15 22.1 44.75 22.3 46.1 21.45 46.5 23.05 47.75 24 49 24.95 50.65 24.95 52.25 24.95 53.55 24 54.8 23.05 55.15 21.45 56.55 22.3 58.1 22.1 59.7 21.9 60.85 20.75 62 19.6 62.2 18.05 62.4 16.45 61.55 15.1 62.5 14.85 63.1 14.45 64.15 13.7 64.75 12.2
M 62.45 11.05
Q 62.25 11.85 61.7 12.25 61.05 12.7 60.05 12.7 59.05 12.65 57.85 12.15 57.5 12 57.1 12.1 56.75 12.15 56.45 12.4 56.75 11.5 56.75 10.55 56.75 9.85 56.6 9.1 59.7 9.8 62.45 11.05
M 53.65 8.65
Q 54.2 9.55 54.2 10.55 54.2 12.05 53.15 13.05 52.1 14.1 50.65 14.1 49.2 14.1 48.15 13.05 47.1 12.05 47.1 10.55 47.1 9.55 47.65 8.65 49.15 8.5 50.65 8.5 52.15 8.5 53.65 8.65
M 44.2 12.1
Q 43.8 12 43.45 12.15 42.2 12.65 41.25 12.7 40.25 12.7 39.6 12.25 39 11.8 38.85 11 41.65 9.75 44.7 9.1 44.55 9.8 44.55 10.55 44.55 11.5 44.8 12.4 44.55 12.15 44.2 12.1
M 49.05 17.75
Q 49.4 16.9 48.8 16.4 49.7 16.65 50.65 16.65 51.6 16.65 52.5 16.4 51.9 16.9 52.25 17.75 52.85 19.2 52.75 20.3 52.7 21.4 51.95 22 51.4 22.4 50.65 22.4 49.9 22.4 49.3 22 48.6 21.4 48.5 20.3 48.45 19.2 49.05 17.75
M 47.15 16.2
Q 46.85 16.4 46.7 16.8 46.1 18.25 45.25 18.95 44.4 19.7 43.5 19.55 42.8 19.5 42.25 18.95 41.7 18.4 41.65 17.7 41.5 16.8 42.25 15.95 42.95 15.1 44.45 14.5 44.8 14.35 45 14.05 45.2 13.75 45.2 13.35 45.65 14.2 46.3 14.9 47 15.55 47.85 16 47.45 16 47.15 16.2
M 56.1 13.35
Q 56.1 13.75 56.3 14.05 56.5 14.35 56.85 14.5 58.3 15.1 59.05 15.95 59.8 16.8 59.65 17.7 59.55 18.4 59.05 18.95 58.5 19.5 57.8 19.55 56.85 19.7 56.05 18.95 55.2 18.25 54.6 16.8 54.45 16.4 54.15 16.2 53.8 16 53.45 16 54.3 15.55 54.95 14.9 55.65 14.2 56.1 13.35
M 43.15 40.7
Q 43.9 40.7 44.25 41.25 44.45 41.65 44.45 42.25 43.5 41.55 42.2 41.05 42.65 40.65 43.15 40.7
M 41.4 43.45
Q 43.7 44.45 44.25 46.05 44.6 47.1 44 48.65 43.45 50.1 42.25 51.5 41 53 39.35 53.85 37.6 54.85 35.75 54.85 33.8 54.85 32.2 53.7 30.6 52.55 30 50.65 29.6 49.5 29.7 48.3 29.8 47.1 30.35 46 30.9 44.95 31.85 44.15 32.75 43.35 33.9 43 35.15 42.6 36.8 42.6 39.35 42.6 41.4 43.45
M 47.2 46.05
Q 47.2 46.55 46.95 46.9 46.9 45.6 46.55 44.9 47.2 45.25 47.2 46.05
M 57.05 41.25
Q 57.4 40.7 58.15 40.7 58.65 40.65 59.05 41.05 57.8 41.55 56.85 42.25 56.85 41.65 57.05 41.25
M 54.35 46.9
Q 54.1 46.55 54.1 46.05 54.1 45.25 54.75 44.9 54.35 46.4 54.35 46.9
M 57.25 48.65
Q 56.7 47.1 57.05 46.05 57.6 44.45 59.85 43.45 61.95 42.6 64.5 42.6 66.15 42.6 67.4 43 68.55 43.35 69.45 44.15 70.35 44.95 70.9 46 71.5 47.1 71.6 48.3 71.65 49.5 71.3 50.65 70.7 52.55 69.1 53.7 67.5 54.85 65.5 54.85 63.6 54.85 61.8 53.85 60.15 53 58.9 51.5 57.75 50.15 57.25 48.65
M 68.25 39.95
Q 68.7 40.25 68.85 40.8 68.4 40.65 68.1 40.55 67.35 40.3 66.55 40.2 67 39.65 67.5 39.7 67.9 39.75 68.25 39.95
M 63.55 39.55
Q 63.9 39.7 64.05 40.05 62.8 40.1 61.55 40.3 61.65 39.9 62.05 39.6 62.4 39.35 62.85 39.35 63.25 39.35 63.55 39.55
M 71.5 42.55
Q 72.15 42.45 72.65 42.9 73.1 43.3 73.1 43.9 73.1 44.2 73 44.45 72.35 43.4 71.5 42.55
M 74 47.2
Q 74.4 47.35 74.6 47.7 74.85 48.05 74.85 48.45 74.85 48.85 74.65 49.15 74.45 49.5 74.1 49.65 74.25 48.4 74 47.2
M 29 42.7
Q 29.4 42.55 29.8 42.55 28.95 43.4 28.3 44.45 28.2 44.15 28.2 43.9 28.25 43.05 29 42.7
M 26.7 47.7
Q 26.9 47.35 27.3 47.2 27.05 48.4 27.2 49.65 26.85 49.5 26.65 49.15 26.45 48.85 26.45 48.45 26.45 48.05 26.7 47.7
M 37.75 39.55
Q 38.05 39.35 38.45 39.35 38.9 39.35 39.25 39.6 39.65 39.9 39.75 40.3 38.5 40.1 37.25 40.05 37.4 39.75 37.75 39.55
M 33.1 40.55
Q 32.8 40.7 32.45 40.8 32.6 40.25 33.05 39.95 33.35 39.75 33.8 39.7 34.3 39.65 34.75 40.2 33.9 40.3 33.1 40.55
M 33.3 57.6
Q 33.05 57.75 32.7 57.75 31.9 57.7 31.55 57.15 31.35 56.75 31.35 56.2 32.5 56.9 33.8 57.2 33.6 57.45 33.3 57.6
M 38.2 57.5
Q 37.8 57.75 37.5 57.75 37 57.75 36.6 57.35 37.25 57.35 38.05 57.1 38.2 57.05 38.85 56.85 38.65 57.2 38.2 57.5
M 27.9 53
Q 27.9 52.7 28 52.5 28.45 53.5 29.15 54.35 28.6 54.3 28.3 54.05 27.85 53.7 27.9 53
M 34.9 70.95
L 35.1 71.95
Q 35.35 73 35.95 73.4 35.2 74.2 34.95 75.25 33.9 74.3 33.5 72.8 33.35 72.35 33.3 71.85 33.3 71.6 33.3 71.45
L 33.3 67.75
Q 34.2 68.6 34.65 69.8 34.85 70.45 34.9 70.95
M 73 54.05
Q 72.65 54.3 72.15 54.35 72.85 53.5 73.3 52.5 73.4 52.75 73.4 53 73.45 53.7 73 54.05
M 64.7 57.35
Q 64.3 57.75 63.8 57.75 63.5 57.75 63.1 57.5 62.65 57.2 62.45 56.85 63.3 57.25 64.7 57.35
M 67.95 57.6
Q 67.7 57.45 67.5 57.2 68.8 56.9 69.95 56.2 69.95 56.75 69.75 57.15 69.4 57.7 68.6 57.75 68.25 57.75 67.95 57.6
M 68 71.85
Q 67.95 72.35 67.8 72.8 67.35 74.3 66.3 75.25 66.1 74.2 65.35 73.4 66.3 72.4 66.4 71.05 66.35 70.55 66.55 69.85 66.9 68.55 68 67.7
L 68 71.45
Q 68 71.6 68 71.85
M 57.9 53.85
Q 58.9 54.8 59.9 55.5 59.55 55.7 59.2 55.7 58.55 55.7 58.2 55.25 57.75 54.75 57.9 53.85
M 56.4 52.2
L 56.35 52.2
Q 55.95 52.3 55.45 52.1 54.65 51.85 54.6 50.85 54.6 50.3 55 49.9 55.55 51.1 56.4 52.2
M 46.3 49.9
Q 46.7 50.3 46.7 50.85 46.65 51.85 45.85 52.1 45.35 52.3 44.95 52.2
L 44.9 52.2
Q 45.75 51.1 46.3 49.9
M 43.4 53.85
Q 43.55 54.75 43.1 55.25 42.75 55.7 42.1 55.7 41.7 55.7 41.4 55.5 42.45 54.8 43.4 53.85
M 51.5 86.6
Q 51.1 86.5 50.65 86.5 50.2 86.5 49.75 86.6 48.9 85.05 48.8 83.85 48.7 82.6 49.4 82.05 49.95 81.6 50.65 81.6 51.35 81.6 51.85 82.05 52.6 82.6 52.5 83.85 52.4 85.05 51.5 86.6
M 57.5 85.3
Q 58.15 85.5 58.5 86.15 58.85 86.75 58.75 87.4 58.6 88.3 57.5 88.85 56.4 89.35 54.6 89.4 54.35 88.55 53.75 87.9 54.65 86.35 55.65 85.65 56.65 85 57.5 85.3
M 42.8 86.15
Q 43.15 85.5 43.75 85.3 44.65 85 45.65 85.65 46.65 86.35 47.55 87.9 46.95 88.55 46.65 89.4 44.9 89.35 43.8 88.85 42.7 88.3 42.55 87.4 42.45 86.75 42.8 86.15
M 50.65 89.05
Q 51.2 89.05 51.65 89.4
L 49.65 89.4
Q 50.1 89.05 50.65 89.05 Z"/>
</g>
</defs>

<g transform="matrix( 1, 0, 0, 1, 0,0) ">
<use xlink:href="#Layer1_0_FILL"/>
</g>

<g transform="matrix( 1, 0, 0, 1, 0,0) ">
<use xlink:href="#Layer0_0_FILL"/>
</g>
</svg>
