
<svg xmlns="http://www.w3.org/2000/svg" version="1.1" xmlns:xlink="http://www.w3.org/1999/xlink" preserveAspectRatio="none" x="0px" y="0px" width="100px" height="100px" viewBox="0 0 100 100">
<defs>
<g id="Layer0_0_FILL">
<path fill="#000000" stroke="none" d="
M 14 36.15
Q 14.2 36.95 14.75 37.1 15.05 37.15 15.4 37.05 15.85 36.95 16.1 36.55 16.4 36.15 16.3 35.7
L 16.05 34.45
Q 15.95 33.95 15.6 33.7 15.2 33.4 14.7 33.5 14.25 33.55 13.95 33.95 13.7 34.35 13.75 34.8 13.9 35.7 14 36.15
M 88.9 19.5
Q 88.25 19.2 87.5 19.1 86.85 19.1 86.8 19.1 85.85 19.1 84.4 19.35 81.55 19.85 78.65 20.95 78.2 21.1 78 21.55 77.8 22 77.95 22.45 78.1 22.9 78.55 23.1 79 23.3 79.45 23.1 81.95 22.15 84.45 21.7 85.85 21.45 86.85 21.4 87.6 21.45 88.1 22.05 88.6 22.6 88.65 23.35 88.75 33.45 86.3 40.45 84.75 45 82.4 47.5 82.2 47.75 82.1 48.1 81.55 51.15 79.8 52.85 78.45 54.1 76.65 54.5 76.6 53.95 76.5 53.25 79 52.05 80.1 49.4 80.45 48.6 80.65 47.75
L 80.75 47.05 81.7 46.05
Q 82.85 44.6 83.8 42.5 86.9 35.8 87.1 25 87.1 24.6 86.9 24.2 86.75 23.8 86.45 23.55 85.8 23.05 84.85 23.2 81.45 23.85 78.35 25.25 70.7 28.7 65.65 35.9 65.05 35.5 64.35 35.1 69.2 28.1 76.4 24.45 76.85 24.25 77 23.8 77.15 23.3 76.95 22.9 76.7 22.45 76.25 22.3 75.8 22.15 75.35 22.4 67.5 26.35 62.3 34.05 57.45 31.8 52.05 31.8 46.6 31.8 41.65 34.1 38.25 29.1 33.6 25.55 30.05 22.85 25.95 21.25 22.85 19.95 19.7 19.4 18.15 19.1 17.05 19.1 16 18.95 15 19.45 12.95 20.4 12.95 23.3 12.95 28.1 13.3 31.35 13.35 31.8 13.7 32.1 14.1 32.4 14.55 32.35 15.05 32.3 15.35 31.95 15.65 31.55 15.6 31.1 15.2 27.4 15.25 23.35 15.25 22.6 15.8 22.05 16.3 21.45 17.05 21.4 18.15 21.45 19.75 21.75 22.55 22.35 25.35 23.5 34.05 27.1 39.6 35.2 38.9 35.6 38.3 36.05 33.25 28.7 25.55 25.25 22.45 23.85 19 23.2 18.1 23.05 17.45 23.55 16.8 24.1 16.8 25.05 16.7 35.95 19.95 42.6 20.95 44.65 22.15 46.05 22.75 46.75 23.15 47.05
L 23.3 47.8
Q 23.5 48.75 23.85 49.6 25.1 52.35 27.65 53.35 27.55 54.15 27.5 54.55 25.65 54.2 24.25 52.95 22.4 51.25 21.8 48.1
L 21.7 47.75 21.5 47.5
Q 20.4 46.35 19.4 44.6 18 42.1 17.05 38.85 16.95 38.4 16.5 38.15 16.1 37.95 15.6 38.05 15.15 38.2 14.95 38.6 14.7 39.05 14.85 39.5 15.8 42.8 17.2 45.4 18.3 47.4 19.55 48.85 20.3 52.25 22.35 54.35 24.4 56.45 27.45 56.85 27.5 61.75 29.4 66.55 31.25 71.35 34.6 75.25 38.2 79.5 42.7 81.75 47.2 84 52.05 84 56.9 84 61.45 81.75 65.95 79.5 69.55 75.25 72.9 71.35 74.75 66.55 76.65 61.7 76.7 56.85 79.05 56.4 80.85 54.95 83.5 52.85 84.35 48.85 86.85 45.95 88.5 41.2 90.95 34.2 90.95 23.3 90.95 20.45 88.9 19.5
M 84.75 25.6
Q 84.6 33.95 82.5 39.6 81.25 43.1 79.55 44.9 79.3 45.1 79.05 45.55 78.45 46.35 78.3 47.35 77.95 49.8 76.05 50.9 75.15 46.85 72.9 43.35 70.75 39.85 67.55 37.3 72.2 30.55 79.3 27.35 81.9 26.2 84.75 25.6
M 43.4 35.9
Q 47.55 34.15 52.05 34.15 56.6 34.15 60.75 35.9 64.75 37.6 67.85 40.7 70.95 43.75 72.65 47.8 74.4 51.9 74.4 56.45 74.4 61.95 71.85 67.4 69.35 72.85 65.05 76.55 62.9 75.8 62.15 73.55 60.15 67.65 56.2 65.3 54.1 64.05 52.05 64.1 50.05 64.05 47.95 65.3 44 67.65 42 73.55 41.25 75.8 39.1 76.55 34.8 72.85 32.25 67.4 29.75 61.95 29.75 56.45 29.75 51.9 31.5 47.8 33.2 43.75 36.3 40.7 39.4 37.6 43.4 35.9
M 24.8 45.45
L 24.35 44.9
Q 22.65 43.1 21.4 39.6 19.3 33.95 19.15 25.6 22 26.2 24.6 27.35 31.75 30.6 36.45 37.4 33.3 40 31.15 43.45 28.95 47 28.05 51 27.05 50.5 26.45 49.6 25.85 48.75 25.55 47.35 25.35 46.25 24.8 45.45
M 52.15 66.4
Q 52.5 66.4 53.05 66.5 54.1 66.75 55.1 67.35 58.25 69.25 59.95 74.3 60.8 76.85 63 78.15 60.55 79.85 57.85 80.75 55 81.65 52.05 81.65 49.1 81.65 46.3 80.75 43.6 79.85 41.15 78.15 43.35 76.85 44.2 74.3 45.9 69.3 49.2 67.35 50.85 66.4 52.15 66.4
M 47.5 70.7
Q 47.5 72.55 48.85 73.8 50.15 75.1 52.05 75.1 54 75.1 55.3 73.8 56.65 72.55 56.65 70.7 56.65 68.55 54.8 67.75 53.8 67.35 52.05 67.35 50.35 67.35 49.35 67.75 47.5 68.55 47.5 70.7
M 49.8 70.7
Q 49.8 70.15 50.1 69.95 50.55 69.65 52.05 69.65 53.55 69.65 54.05 69.95 54.3 70.15 54.3 70.7 54.3 71 54.25 71.25 53.8 71.25 53.5 71.55 53.15 71.9 53.15 72.4
L 53.15 72.5
Q 52.65 72.75 52.05 72.75 51.45 72.75 51 72.5
L 51 72.4
Q 51 71.95 50.65 71.55 50.35 71.25 49.9 71.25 49.8 70.95 49.8 70.7
M 67.55 58.85
Q 65.95 57.3 63.75 57.3 61.5 57.3 59.95 58.85 58.4 60.45 58.4 62.65 58.4 64.85 59.95 66.45 61.5 68 63.75 68 65.95 68 67.55 66.45 69.1 64.85 69.1 62.65 69.1 60.45 67.55 58.85
M 63.75 59.6
Q 65 59.6 65.9 60.5 66.75 61.4 66.75 62.65 66.75 63.9 65.9 64.8 65 65.7 63.75 65.7 62.5 65.7 61.6 64.8 60.7 63.9 60.7 62.65 60.7 61.4 61.6 60.5 62.5 59.6 63.75 59.6
M 63.75 61.5
Q 63.25 61.5 62.9 61.8 62.6 62.15 62.6 62.65 62.6 63.15 62.9 63.45 63.25 63.8 63.75 63.8 64.2 63.8 64.55 63.45 64.9 63.1 64.9 62.65 64.9 62.15 64.55 61.8 64.2 61.5 63.75 61.5
M 35.25 62.65
Q 35.25 64.85 36.85 66.45 38.4 68 40.6 68 42.85 68 44.4 66.45 46 64.85 46 62.65 46 60.45 44.4 58.85 42.85 57.3 40.6 57.3 38.4 57.3 36.85 58.85 35.25 60.45 35.25 62.65
M 38.45 64.8
Q 37.6 63.9 37.6 62.65 37.6 61.4 38.45 60.5 39.35 59.6 40.6 59.6 41.85 59.6 42.75 60.5 43.65 61.4 43.65 62.65 43.65 63.9 42.75 64.8 41.85 65.7 40.6 65.7 39.35 65.7 38.45 64.8
M 39.45 62.65
Q 39.45 63.15 39.8 63.45 40.15 63.8 40.6 63.8 41.1 63.8 41.45 63.45 41.75 63.1 41.75 62.65 41.75 62.15 41.45 61.8 41.1 61.5 40.6 61.5 40.15 61.5 39.8 61.8 39.45 62.15 39.45 62.65
M 66.75 42.9
Q 66.45 42.55 65.95 42.5 65.5 42.5 65.1 42.8 64.75 43.15 64.75 43.65 64.75 44.1 65.05 44.45 65.65 45.1 66.2 45.8 66.4 46.1 66.85 46.2 67.35 46.35 67.8 46.05 68.2 45.75 68.25 45.3 68.35 44.8 68.05 44.4 67.4 43.6 66.75 42.9
M 54.05 38.5
Q 54.3 38.9 54.8 39 56.9 39.3 58.95 40.15 60.95 41 62.7 42.3 62.95 42.5 63.35 42.5 63.95 42.55 64.3 42.1 64.6 41.7 64.55 41.2 64.45 40.75 64.05 40.45 62.1 39 59.85 38.05 57.55 37.05 55.15 36.7 54.65 36.6 54.3 36.9 53.9 37.2 53.8 37.65 53.75 38.1 54.05 38.5 Z"/>
</g>
</defs>

<g transform="matrix( 1, 0, 0, 1, 0,0) ">
<use xlink:href="#Layer0_0_FILL"/>
</g>
</svg>
