
<svg xmlns="http://www.w3.org/2000/svg" version="1.1" xmlns:xlink="http://www.w3.org/1999/xlink" preserveAspectRatio="none" x="0px" y="0px" width="100px" height="100px" viewBox="0 0 100 100">
<defs>
<g id="Layer1_0_FILL">
<path fill="#47A0C3" stroke="none" d="
M 60.75 90
L 60.15 90 60.15 90.65 60.75 90 Z"/>
</g>

<g id="Layer0_0_FILL">
<path fill="#000000" stroke="none" d="
M 89.9 32.2
Q 88.5 27.55 85.6 23.7 82.65 19.85 78.6 17.2 74.5 14.6 69.8 13.55 65.05 12.5 60.25 13.15 55.55 13.8 51.3 16.05 47.05 18.3 43.85 21.8 43.65 22.05 43.4 22.45 42.85 23.25 42.7 24.15 42.1 26.9 45 29.15
L 24 29.15
Q 23.4 29.15 22.65 29.4 21.1 29.9 20.15 31 18.55 32.9 19.1 36.3
L 25.65 78.35 25.65 78.4
Q 26 80.25 27.35 81.75 29.2 83.7 32.1 83.7
L 59.05 83.7
Q 61.9 83.7 63.75 81.75 65.15 80.25 65.5 78.4
L 65.5 78.35 70.6 45.55 81.55 52.6
Q 84.65 54.45 87.1 52.8 88.3 51.9 88.85 50.7 90.75 46.35 91 41.55 91.3 36.8 89.9 32.2
M 86.4 43.5
Q 87 39.35 86.1 35.2 85.15 30.75 82.6 27.05 80.05 23.4 76.2 20.95 72.45 18.5 68.1 17.7 63.9 16.95 59.65 17.75 55.45 18.55 51.85 20.85 48.1 23.2 45.5 26.8 45 26.2 44.8 25.5 44.55 24.3 45.5 23.2 48.55 19.85 52.5 17.8 56.35 15.8 60.7 15.25 65 14.65 69.25 15.6 73.65 16.55 77.45 19 81.25 21.45 83.95 25.05 86.55 28.5 87.85 32.65 89.1 36.85 88.9 41.15 88.7 45.65 86.95 49.8 86.25 50.95 85.05 51.25 84.25 51.45 83.65 51.25 85.75 47.6 86.4 43.5
M 82.7 31.55
Q 84.65 36 84.5 40.9 84.3 45.85 81.8 50.2
L 70.95 43.25 71.9 37.3 82.7 31.55
M 70.65 20.6
Q 72.95 21.4 75.05 22.75 79.2 25.4 81.7 29.65
L 72.15 34.75
Q 72.15 32.45 70.95 31 70.05 29.85 68.55 29.4 68.05 29.25 67.6 29.2 67.3 29.15 67.15 29.15
L 48.95 29.15 47.25 28
Q 50.15 23.95 54.65 21.7 59 19.5 63.85 19.5
L 63.55 25.75
Q 63.55 26.45 64.05 26.75 64.35 26.9 64.6 26.9 65.05 26.9 65.35 26.6 65.65 26.3 65.7 25.85
L 66 19.55
Q 68.4 19.8 70.65 20.6
M 67.95 31.45
Q 68.8 31.75 69.3 32.35 70.3 33.55 69.95 35.95
L 63.4 78
Q 63.2 78.95 62.5 79.9 61.25 81.55 59.05 81.55
L 32.1 81.55
Q 29.85 81.55 28.6 79.9 27.95 78.95 27.75 78
L 21.2 35.95
Q 20.8 33.55 21.8 32.35 22.3 31.75 23.2 31.45 23.6 31.3 24 31.3
L 67.1 31.3
Q 67.5 31.3 67.95 31.45
M 44.45 64.85
Q 44.45 66.3 45.5 67.35 46.55 68.4 48 68.4 49.5 68.4 50.55 67.35 51.6 66.3 51.6 64.85 51.6 63.35 50.55 62.3 49.5 61.25 48 61.25 46.55 61.25 45.5 62.3 44.45 63.35 44.45 64.85
M 46.6 64.85
Q 46.6 64.25 47 63.85 47.4 63.4 48 63.4 48.6 63.4 49 63.85 49.45 64.25 49.45 64.85 49.45 65.4 49 65.85 48.6 66.25 48 66.25 47.4 66.25 47 65.85 46.6 65.4 46.6 64.85
M 58.2 54.95
Q 58.2 53.5 57.15 52.45 56.1 51.4 54.65 51.4 53.15 51.4 52.1 52.45 51.1 53.5 51.1 54.95 51.1 56.45 52.1 57.5 53.15 58.55 54.65 58.55 56.1 58.55 57.15 57.5 58.2 56.45 58.2 54.95
M 53.2 54.95
Q 53.2 54.4 53.65 53.95 54.05 53.55 54.65 53.55 55.25 53.55 55.65 53.95 56.1 54.4 56.1 54.95 56.1 55.55 55.65 56 55.25 56.4 54.65 56.4 54.05 56.4 53.65 56 53.2 55.55 53.2 54.95
M 47.1 43.3
Q 46.1 44.35 46.1 45.8 46.1 47.3 47.1 48.35 48.15 49.4 49.65 49.4 51.1 49.4 52.15 48.35 53.2 47.3 53.2 45.8 53.2 44.35 52.15 43.3 51.1 42.25 49.65 42.25 48.15 42.25 47.1 43.3
M 49.65 47.25
Q 49.05 47.25 48.65 46.8 48.2 46.4 48.2 45.8 48.2 45.2 48.65 44.8 49.05 44.4 49.65 44.4 50.25 44.4 50.65 44.8 51.1 45.2 51.1 45.8 51.1 46.4 50.65 46.8 50.25 47.25 49.65 47.25
M 65.45 35.75
Q 64.9 35.1 63.95 34.8 63.45 34.65 63 34.65
L 28.1 34.65
Q 27.65 34.65 27.15 34.8 26.25 35.1 25.65 35.75 25.25 36.2 25.1 36.8 24.85 37.6 25 38.55
L 30.75 75.35
Q 30.95 76.5 31.75 77.3 32.7 78.2 34.1 78.2
L 57 78.2
Q 58.4 78.2 59.35 77.3 60.15 76.5 60.35 75.35
L 62.7 60.25
Q 62.8 59.85 62.55 59.45 62.25 59.1 61.85 59.05 61.4 58.95 61.05 59.25 60.65 59.5 60.6 59.95
L 58.25 75
Q 58.2 75.4 57.95 75.7 57.65 76.05 57 76.05
L 34.1 76.05
Q 33.5 76.05 33.15 75.7 32.95 75.4 32.85 75
L 27.15 38.25
Q 27 37.5 27.3 37.15 27.45 36.95 27.8 36.85 27.9 36.85 28.15 36.8
L 63 36.8 63.3 36.85
Q 63.65 36.95 63.85 37.15 64.1 37.5 64 38.25
L 61.8 52.4
Q 61.7 52.85 62 53.2 62.25 53.55 62.65 53.65 63.1 53.7 63.45 53.45 63.85 53.2 63.9 52.75
L 66.1 38.55
Q 66.25 37.6 66.05 36.8 65.85 36.2 65.45 35.75
M 63.2 55.15
Q 62.95 54.8 62.5 54.7 62.05 54.65 61.7 54.9 61.35 55.15 61.3 55.6
L 61.1 56.75
Q 61 57.45 61.55 57.8 61.85 57.95 62.15 58 62.55 58 62.85 57.75 63.15 57.5 63.2 57.1
L 63.4 55.95
Q 63.45 55.5 63.2 55.15 Z"/>
</g>
</defs>

<g transform="matrix( 1, 0, 0, 1, 0,0) ">
<use xlink:href="#Layer1_0_FILL"/>
</g>

<g transform="matrix( 1, 0, 0, 1, 0,0) ">
<use xlink:href="#Layer0_0_FILL"/>
</g>
</svg>
