<?xml version="1.0" encoding="utf-8"?>
<!-- Svg Vector Icons : http://www.onlinewebfonts.com/icon -->
<!DOCTYPE svg PUBLIC "-//W3C//DTD SVG 1.1//EN" "http://www.w3.org/Graphics/SVG/1.1/DTD/svg11.dtd">
<svg version="1.1" xmlns="http://www.w3.org/2000/svg" xmlns:xlink="http://www.w3.org/1999/xlink" x="0px" y="0px" viewBox="0 0 1000 1000" enable-background="new 0 0 1000 1000" xml:space="preserve">
<metadata> Svg Vector Icons : http://www.onlinewebfonts.com/icon </metadata>
<g><path fill="#666" d="M931,399h-38.8c-31.7,0-58.2-27.3-58.2-59.8c0-16.4,6.9-31.2,19.2-42.2l25-24.5c24.8-24.5,24.8-64.6,0-89.2l-57-56.5c-11.2-11.2-27.8-17.9-44.7-17.9s-33.2,6.6-44.7,17.9l-24,24c-11.5,12.8-26.8,19.7-43.4,19.7c-32.7,0-60-26.6-60-58V73.5c0-34.5-27.8-64.1-62.6-64.1H464c-34.7,0-62.3,29.4-62.3,64.1v38.8c0,31.4-27.3,58-60,58c-16.3,0-31.4-6.9-42.4-18.9l-24.8-24.5c-11.2-11.5-27.8-17.9-44.7-17.9c-16.9,0-33.2,6.6-44.7,17.9l-57.5,56.2c-24.5,24.5-24.5,64.6,0,88.9l24,24c12.8,11.5,19.9,26.8,19.9,43.2c0,32.7-26.6,59.8-58.2,59.8H74.4C39.4,399,10,426.3,10,461v38.8v38.8c0,34.5,29.4,62.1,64.4,62.1h38.8c31.7,0,58.2,27.3,58.2,59.8c0,16.3-7.2,31.7-19.9,43.2l-24,23.8c-24.5,24.5-24.5,64.6,0,88.9l57,56.7c11.2,11.5,27.8,17.9,44.7,17.9c16.9,0,33.2-6.6,44.7-17.9l24.8-24.5c10.7-12,26.1-18.9,42.4-18.9c32.7,0,60,26.6,60,58v38.8c0,34.5,27.6,64.1,62.6,64.1h77.7c34.7,0,62.3-29.4,62.3-64.1v-38.8c0-31.4,27.3-58,60-58c16.3,0,31.7,7.2,43.4,19.7l24,24c11.5,11.2,27.8,17.9,44.7,17.9s33.2-6.6,44.7-17.9l57-56.7c24.5-24.5,24.5-64.6,0-89.2l-25-24.5c-12.3-11-19.2-26.1-19.2-42.2c0-32.7,26.6-59.8,58.2-59.8h38.8c34.7,0,59.5-27.3,59.5-62.1v-39.1V461C990.5,426.3,965.7,399,931,399z M706.9,499.9L706.9,499.9c0,112.7-91.2,204.4-204.4,204.4c-113.2,0-204.4-91.7-204.4-204.4l0,0l0,0c0-112.7,91.2-204.4,204.4-204.4C615.7,295.5,706.9,387.2,706.9,499.9L706.9,499.9z"/></g>
</svg>
